<svg width="454" height="233" viewBox="0 0 454 233" fill="none" xmlns="http://www.w3.org/2000/svg">
<path fill-rule="evenodd" clip-rule="evenodd" d="M139.082 210C139.082 197.7 177.782 187.6 225.482 187.6C273.182 187.6 311.882 197.7 311.882 210.1C311.882 211.4 311.482 212.7 310.582 214C303.382 224.5 267.982 232.5 225.482 232.5C177.782 232.5 139.082 222.4 139.082 210ZM175.782 205.8C175.782 209.9 197.982 213.2 225.482 213.2C252.882 213.2 275.182 209.9 275.082 205.8V205.7C275.082 205.4 274.982 205.1 274.682 204.8C271.482 201.2 250.682 198.4 225.482 198.4C199.382 198.4 177.882 201.4 175.982 205.2C175.882 205.2 175.882 205.3 175.882 205.3C175.824 205.357 175.8 205.382 175.789 205.411C175.782 205.433 175.782 205.457 175.782 205.5V205.8Z" fill="#7A97F4"/>
<path d="M121.882 194.7H38.6817C36.5817 194.7 34.4817 195.4 32.7817 196.7L0.781747 221.8C-0.718253 223 0.0817473 225.4 1.98175 225.4H89.8817C92.0817 225.4 94.2817 224.5 95.8817 223L122.782 197C123.682 196.2 123.082 194.7 121.882 194.7Z" fill="#7A97F4"/>
<path d="M451.982 194.7H368.682C366.582 194.7 364.482 195.4 362.782 196.7L330.782 221.8C329.282 223 330.082 225.4 331.982 225.4H419.882C422.082 225.4 424.282 224.5 425.882 223L452.782 197C453.782 196.2 453.182 194.7 451.982 194.7Z" fill="#7A97F4"/>
<path fill-rule="evenodd" clip-rule="evenodd" d="M139.082 205.9C139.082 193.6 177.782 183.5 225.482 183.5C273.182 183.5 311.882 193.6 311.882 206C311.882 207.3 311.482 208.6 310.582 209.9C303.382 220.4 267.982 228.4 225.482 228.4C177.782 228.4 139.082 218.3 139.082 205.9ZM175.782 201.7C175.782 205.8 197.982 209.1 225.482 209.1C252.882 209.1 275.182 205.8 275.082 201.7V201.6C275.082 201.3 274.982 201 274.682 200.7C271.482 197.1 250.682 194.3 225.482 194.3C199.382 194.3 177.882 197.3 175.982 201.1C175.882 201.1 175.882 201.2 175.882 201.2C175.824 201.258 175.8 201.282 175.789 201.311C175.782 201.333 175.782 201.358 175.782 201.4V201.7Z" fill="#BCAEAB"/>
<path d="M310.582 209.9C303.382 220.4 268.082 228.4 225.482 228.4C177.782 228.4 139.082 218.3 139.082 205.9C139.082 205.9 154.082 224 222.482 224C281.282 224.1 304.982 213 310.582 209.9Z" fill="#BCAEAB"/>
<path d="M274.682 200.7C271.382 197.1 250.582 194.3 225.482 194.3C199.282 194.3 177.882 197.3 175.982 201.1C176.882 198.9 182.882 191.3 225.482 191.3C264.682 191.3 272.982 198.1 274.682 200.7Z" fill="#BCAEAB"/>
<path d="M122.582 194.7L105.082 69.5C104.882 68.2 103.782 67.2 102.382 67.2H78.7818C77.1818 67.2 75.8818 68.6 76.0818 70.3L81.9818 117.6C82.1818 119.5 80.7818 121.1 78.8818 121.1H51.8818C50.1818 121.1 48.7818 119.8 48.6818 118.1L46.4818 69.9C46.3818 68.4 45.1818 67.3 43.7818 67.3H21.6818C20.0818 67.3 18.8818 68.6 18.9818 70.1L21.9818 152.5C22.0818 155.1 24.2818 157.2 26.8818 157.2H86.9818L91.6818 194.9H122.582V194.7Z" fill="#273D7A"/>
<path d="M452.682 194.7L435.182 69.5C434.982 68.2 433.882 67.2 432.482 67.2H408.882C407.282 67.2 405.982 68.6 406.182 70.3L412.082 117.6C412.282 119.5 410.882 121.1 408.982 121.1H381.982C380.282 121.1 378.882 119.8 378.782 118.1L376.582 69.9C376.482 68.4 375.282 67.3 373.882 67.3H351.882C350.282 67.3 349.082 68.6 349.182 70.1L352.182 152.5C352.282 155.1 354.482 157.2 357.082 157.2H417.182L421.882 194.9H452.682V194.7Z" fill="#273D7A"/>
<path d="M104.382 70.8L91.1818 220.4C90.9818 223.2 88.5818 225.4 85.7818 225.4H65.9818C62.6818 225.4 60.1818 222.5 60.5818 219.3L68.8818 149.2L9.58178 150.2C6.28178 150.2 3.78178 147.3 4.38178 144.1L4.58178 142.8L18.1818 69.9C18.5818 67.9 20.2818 66.4 22.3818 66.4H41.2818C43.8818 66.4 45.8818 68.8 45.4818 71.4L37.3818 117.4C37.0818 119.3 38.4818 120.9 40.3818 120.9H68.6818L75.2818 69.8C75.5818 67.8 77.2818 66.3 79.2818 66.3H100.382C102.682 66.4 104.582 68.5 104.382 70.8Z" fill="#EE9977"/>
<path d="M69.2818 142.8L68.7818 149.2L9.48181 150.2C6.18181 150.2 3.68181 147.3 4.28181 144.1L4.48181 142.8H69.2818V142.8Z" fill="#EE9977"/>
<path d="M104.382 70.8L91.1819 220.4C90.9819 223.2 88.5819 225.4 85.7819 225.4H82.7819L98.4819 66.4H100.382C102.682 66.4 104.582 68.5 104.382 70.8Z" fill="#EE9977"/>
<path d="M37.2818 117.5C36.9818 119.4 38.3818 121 40.2818 121H34.4818C32.3818 121 30.6818 119.1 31.0818 117L39.9818 66.5H41.2818C43.8818 66.5 45.8818 68.9 45.4818 71.5L37.2818 117.5Z" fill="#EE9977"/>
<path d="M434.382 70.8L421.182 220.4C420.982 223.2 418.582 225.4 415.782 225.4H395.982C392.682 225.4 390.182 222.5 390.582 219.3L398.882 149.2L339.582 150.2C336.282 150.2 333.782 147.3 334.382 144.1L334.582 142.8L348.182 69.9C348.582 67.9 350.282 66.4 352.382 66.4H371.282C373.882 66.4 375.882 68.8 375.482 71.4L367.382 117.4C367.082 119.3 368.482 120.9 370.382 120.9H398.682L405.282 69.8C405.582 67.8 407.282 66.3 409.282 66.3H430.382C432.782 66.4 434.682 68.5 434.382 70.8Z" fill="#558899"/>
<path d="M399.382 142.8L398.882 149.2L339.582 150.2C336.282 150.2 333.782 147.3 334.382 144.1L334.582 142.8H399.382V142.8Z" fill="#558899"/>
<path d="M434.382 70.8L421.182 220.4C420.982 223.2 418.582 225.4 415.782 225.4H412.782L428.482 66.4H430.382C432.782 66.4 434.682 68.5 434.382 70.8Z" fill="#558899"/>
<path d="M367.382 117.5C367.082 119.4 368.482 121 370.382 121H364.582C362.482 121 360.782 119.1 361.182 117L370.082 66.5H371.382C373.982 66.5 375.982 68.9 375.582 71.5L367.382 117.5Z" fill="#558899"/>
<path opacity="0.28" d="M185.982 101.3L165.482 205.3C164.382 210.9 167.982 216.2 172.882 216.2H281.482C286.282 216.2 289.882 211.1 288.982 205.7L272.182 101.7C271.482 97.5 268.382 94.5 264.682 94.5H193.482C189.882 94.4 186.782 97.3 185.982 101.3Z" fill="#FF97C9"/>
<path d="M278.582 107.8L288.482 140.7C288.682 141.4 289.382 141.8 290.082 141.5V141.5C290.582 141.3 290.982 140.7 290.782 140.1L284.282 106.4C283.882 104.6 281.882 103.6 280.182 104.3V104.3C278.882 104.9 278.182 106.3 278.582 107.8Z" fill="#FEC272"/>
<path d="M259.882 119.7L266.282 145.1C266.382 145.6 266.882 145.8 267.282 145.7V145.7C267.682 145.6 267.882 145.2 267.782 144.8L263.682 118.9C263.482 117.7 262.182 116.9 260.982 117.4V117.4C260.182 117.8 259.682 118.7 259.882 119.7Z" fill="#FEC272"/>
<path d="M176.482 111L168.182 136.3C168.082 136.8 167.482 137 167.082 136.8V136.8C166.682 136.6 166.482 136.2 166.582 135.8L172.582 109.9C172.882 108.7 174.282 108 175.382 108.5V108.5C176.382 109 176.782 110 176.482 111Z" fill="#FEC272"/>
<path d="M192.982 118.8L182.182 165.8C182.082 166.3 181.582 166.5 181.182 166.4V166.4C180.782 166.3 180.582 165.9 180.682 165.5L189.182 118C189.382 116.8 190.682 116 191.882 116.5V116.5C192.782 116.8 193.282 117.8 192.982 118.8Z" fill="#FEC272"/>
<path d="M215.882 124.3L210.682 158.4C210.582 158.9 210.082 159.2 209.682 159V159C209.282 158.9 209.082 158.5 209.082 158.1L211.882 123.7C212.082 122.5 213.282 121.7 214.482 122.1V122.1C215.482 122.3 216.082 123.3 215.882 124.3Z" fill="#FEC272"/>
<path d="M242.682 123.6L243.982 177.7C243.982 178.2 243.582 178.5 243.082 178.5V178.5C242.682 178.4 242.382 178.1 242.382 177.7L238.682 123.6C238.682 122.3 239.782 121.4 240.982 121.6V121.6C241.982 121.8 242.682 122.7 242.682 123.6Z" fill="#FEC272"/>
<path d="M138.782 74.5C137.682 73.2 136.882 71.9 136.282 70.6L133.982 55.2L139.282 60.1L138.782 74.5Z" fill="#738DE0"/>
<path d="M287.982 79.7C287.982 79.7 284.682 86.6 277.482 94.3C268.482 103.9 253.282 114.8 230.682 114.8C214.782 114.8 202.982 109.5 194.582 103.1C181.382 93.1 176.182 80.3 176.182 80.3L287.982 79.7Z" fill="#273D7A"/>
<path d="M287.982 79.7C287.982 79.7 284.682 86.6 277.482 94.3C269.782 97.3 260.282 99.8 248.482 101.4C225.282 104.5 207.182 104.3 194.582 103.1C181.382 93.1 176.182 80.3 176.182 80.3L287.982 79.7Z" fill="#072359"/>
<path d="M323.182 54.6C323.182 54.6 322.582 60.9 320.582 68.7C320.282 69.8 319.782 71.1 318.982 72.3C316.882 75.7 312.882 79.4 306.382 82.9C305.282 83.5 303.982 84.1 302.682 84.7C301.682 85.2 300.682 85.6 299.582 86.1C298.082 86.7 296.582 87.3 294.982 87.9C289.382 89.9 282.782 91.6 274.982 93.2C274.382 93.3 273.882 93.4 273.282 93.5C271.782 93.8 269.982 94 268.082 94.2C260.082 95.1 249.482 95.7 238.182 95.9C236.082 95.9 233.982 96 231.882 96C221.182 96.1 210.382 95.8 200.982 95.3C198.982 95.2 196.982 95.1 195.182 94.9C189.682 94.5 184.882 93.9 181.382 93.2C176.282 92.2 171.682 91.1 167.582 89.9C165.882 89.4 164.282 88.9 162.682 88.4C150.282 84.3 142.782 79.3 138.882 74.7C138.282 74 137.782 73.4 137.382 72.7C136.982 72.1 136.582 71.4 136.382 70.8C136.082 70.1 135.782 69.5 135.682 68.8C134.782 65.1 134.082 61.3 133.782 58.4C133.382 55.1 133.282 52.9 133.282 52.9L228.282 60L323.282 54.7L323.182 54.6Z" fill="#99ADF9"/>
<path d="M323.082 54.4V54.4C323.082 55.1 322.582 56 321.682 57.1C319.182 60 313.182 64.3 302.982 68.2C301.682 68.7 300.282 69.2 298.782 69.7C298.082 69.9 297.382 70.2 296.682 70.4C295.182 70.9 293.582 71.4 291.882 71.8V71.8C286.182 73.4 279.582 74.9 271.982 76C270.182 76.3 268.282 76.6 266.282 76.8C257.882 77.9 248.482 78.6 237.982 78.8C235.982 78.8 233.882 78.9 231.782 78.9H231.682C220.982 78.9 211.082 78.4 202.182 77.6C200.182 77.4 198.182 77.2 196.282 77C186.482 75.9 177.782 74.3 170.282 72.5C168.582 72.1 166.882 71.6 165.282 71.2C150.382 67.1 140.582 62 136.082 57.8C135.182 57 134.482 56.1 133.982 55.4C133.382 54.5 133.082 53.7 133.082 52.9C133.082 45.8 161.082 30.7 232.182 30.7C303.282 30.6 323.082 49.5 323.082 54.4Z" fill="#273D7A"/>
<path d="M191.182 38.8L139.182 60.1C137.182 58.8 134.382 56 133.882 55.2L189.482 37.9L191.182 38.8Z" fill="#072359"/>
<path d="M323.082 54.5C323.082 55.1 322.582 56 321.682 57.1L268.282 38.8L269.982 38L323.082 54.5Z" fill="#072359"/>
<path d="M199.982 44.3L170.282 72.4C168.582 72 166.882 71.5 165.282 71.1L198.182 44.2L199.982 44.3Z" fill="#072359"/>
<path d="M216.282 47.6L202.182 77.6C200.182 77.4 198.182 77.2 196.282 77L214.482 47.5L216.282 47.6Z" fill="#072359"/>
<path d="M272.082 76.1C270.282 76.4 268.282 76.7 266.382 76.9L252.582 47.6L254.482 47.5L272.082 76.1Z" fill="#072359"/>
<path d="M237.982 78.9C235.982 78.9 233.882 79 231.782 79H231.682L234.082 49.5L235.982 49.4L237.982 78.9Z" fill="#072359"/>
<path d="M302.882 68.2C301.582 68.7 300.182 69.2 298.682 69.7L262.782 44.3L264.682 44.2L302.882 68.2Z" fill="#072359"/>
<path d="M238.082 95.7C235.982 95.7 233.882 95.8 231.782 95.8V78.9L237.982 78.8L238.082 95.7Z" fill="#738DE0"/>
<path d="M273.082 93.3C271.482 93.6 269.782 93.8 267.882 94L266.282 76.8L271.982 76L273.082 93.3Z" fill="#738DE0"/>
<path d="M306.282 82.8C305.182 83.4 303.882 84 302.582 84.6L298.782 69.6L302.882 68.2L306.282 82.8Z" fill="#738DE0"/>
<path d="M202.182 77.6L200.982 95.1C198.982 95 196.982 94.9 195.182 94.7L196.382 77L202.182 77.6Z" fill="#738DE0"/>
<path d="M170.282 72.4L167.482 89.7C165.782 89.2 164.182 88.7 162.582 88.2L165.182 71.1L170.282 72.4Z" fill="#738DE0"/>
<path d="M139.282 60.3L137.282 72.6C136.882 72 136.482 71.3 136.282 70.7C135.982 70 135.682 69.4 135.582 68.7C134.682 65 133.982 61.2 133.682 58.3L133.982 55.3C133.982 55.3 135.682 57.3 136.382 58C136.982 58.6 139.282 60.3 139.282 60.3Z" fill="#738DE0"/>
<ellipse cx="227.482" cy="46.3" rx="53.3" ry="15.1" fill="#072359"/>
<path d="M276.182 43.9C276.182 43.9 272.282 48.3 262.682 52.1C255.582 54.9 245.382 57.3 231.382 57.3C223.682 57.3 216.982 56.6 211.382 55.5C192.682 51.9 184.582 44.1 184.582 44.1C184.582 44.1 188.682 13.7 214.282 3.4C219.482 1.3 225.682 0 232.882 0C268.082 0 276.182 43.9 276.182 43.9Z" fill="#99ADF9"/>
<path d="M211.382 55.5C192.682 51.9 184.582 44.1 184.582 44.1C184.582 44.1 188.682 13.7 214.282 3.40002C209.282 7.60002 204.382 16 203.582 29.7C202.782 39.9 205.182 48.4 211.382 55.5Z" fill="#7A97F4"/>
<path d="M276.182 43.9C276.182 43.9 272.282 48.3 262.682 52.1C261.182 46.5 258.882 41.5 258.882 41.5C258.882 41.5 249.482 43.5 245.282 34.6C241.082 25.7 251.182 19.3 251.182 19.3C251.182 19.3 248.782 11.6 236.382 6.6C223.982 1.6 214.082 3.4 214.082 3.4C219.282 1.3 225.482 0 232.682 0C268.082 0 276.182 43.9 276.182 43.9Z" fill="#C2D1FF"/>
<ellipse cx="235.882" cy="22.5" rx="2.7" ry="2.6" fill="#C2D1FF"/>
<ellipse cx="226.482" cy="25.6" rx="2.1" ry="2" fill="#C2D1FF"/>
<ellipse cx="232.782" cy="37.1" rx="4.1" ry="4" fill="#C2D1FF"/>
</svg>
